<svg width="345" height="44" viewBox="0 0 345 44" fill="none" xmlns="http://www.w3.org/2000/svg">
<g filter="url(#filter0_i_83_970)">
<path fill-rule="evenodd" clip-rule="evenodd" d="M37.52 10.8303L27.0073 4.76074L22.5186 7.35226L33.0314 13.4218V35.083L37.52 32.4915V10.8303ZM21.0052 42.0263V8.27594L16.5166 11.0813V42.0263L18.7609 43.3221L21.0052 42.0263ZM29.0798 15.6071L24.5911 13.1489V39.8729L29.0798 37.2814V15.6071Z" fill="url(#paint0_angular_83_970)"/>
</g>
<g filter="url(#filter1_i_83_970)">
<path d="M23.2478 2.59152L18.7591 0L0 10.8306V32.4918L4.48864 35.0833V22.5144L12.6255 17.9527V12.8704L4.48864 17.428V13.4221L23.2478 2.59152Z" fill="url(#paint1_angular_83_970)"/>
<path d="M12.5853 39.8732V22.4263L8.09666 24.8845V37.2817L12.5853 39.8732Z" fill="url(#paint2_angular_83_970)"/>
</g>
<g filter="url(#filter2_i_83_970)">
<mask id="path-3-outside-1_83_970" maskUnits="userSpaceOnUse" x="197.414" y="12.1699" width="148" height="20" fill="black">
<rect fill="white" x="197.414" y="12.1699" width="148" height="20"/>
<path d="M214.592 13.1978H215.428C215.614 13.1978 215.707 13.2908 215.707 13.4769V30.2198C215.707 30.4058 215.614 30.4989 215.428 30.4989H214.313C214.127 30.4989 213.969 30.4338 213.838 30.3035L200.004 15.0675C199.874 14.9372 199.809 14.9651 199.809 15.1512V30.2198C199.809 30.4058 199.716 30.4989 199.53 30.4989H198.693C198.507 30.4989 198.414 30.4058 198.414 30.2198V13.4769C198.414 13.2908 198.507 13.1978 198.693 13.1978H199.809C199.995 13.1978 200.153 13.2629 200.283 13.3932L214.117 28.6013C214.248 28.7502 214.313 28.7316 214.313 28.5455V13.4769C214.313 13.2908 214.406 13.1978 214.592 13.1978Z"/>
<path d="M222.954 14.5652C222.768 14.5652 222.61 14.5001 222.48 14.3698L221.476 13.3653C221.345 13.235 221.373 13.1699 221.559 13.1699H237.039C237.225 13.1699 237.318 13.2629 237.318 13.449V14.2861C237.318 14.4722 237.225 14.5652 237.039 14.5652H222.954ZM237.318 30.1919C237.318 30.3779 237.225 30.471 237.039 30.471H221.699C221.513 30.471 221.42 30.3779 221.42 30.1919V29.3548C221.42 29.1687 221.513 29.0757 221.699 29.0757H237.039C237.225 29.0757 237.318 29.1687 237.318 29.3548V30.1919ZM233.134 22.239C233.134 22.425 233.042 22.5181 232.856 22.5181H221.699C221.513 22.5181 221.42 22.425 221.42 22.239V21.4019C221.42 21.2158 221.513 21.1228 221.699 21.1228H232.856C233.042 21.1228 233.134 21.2158 233.134 21.4019V22.239Z"/>
<path d="M243.868 14.5931C243.682 14.5931 243.524 14.528 243.393 14.3977L242.389 13.3932C242.259 13.2629 242.287 13.1978 242.473 13.1978H257.953C258.139 13.1978 258.232 13.2908 258.232 13.4769V14.314C258.232 14.5001 258.139 14.5931 257.953 14.5931H250.98V30.2198C250.98 30.4058 250.887 30.4989 250.701 30.4989H249.864C249.678 30.4989 249.585 30.4058 249.585 30.2198V14.5931H243.868Z"/>
<path d="M279.854 13.4769V27.2898C279.854 28.1828 279.538 28.9455 278.906 29.578C278.292 30.1919 277.539 30.4989 276.646 30.4989H273.718C272.751 30.4989 271.951 30.1361 271.319 29.4106C271.282 29.3734 271.245 29.3269 271.207 29.271C271.17 29.3269 271.133 29.3734 271.096 29.4106C270.464 30.1361 269.664 30.4989 268.697 30.4989H265.768C264.876 30.4989 264.113 30.1919 263.481 29.578C262.868 28.9455 262.561 28.1828 262.561 27.2898V13.4769C262.561 13.2908 262.654 13.1978 262.84 13.1978H263.676C263.862 13.1978 263.955 13.2908 263.955 13.4769V27.2898C263.955 27.7921 264.132 28.22 264.485 28.5734C264.839 28.9269 265.266 29.1036 265.768 29.1036H268.697C269.199 29.1036 269.627 28.9269 269.98 28.5734C270.333 28.22 270.51 27.7921 270.51 27.2898V19.1974C270.51 19.0113 270.603 18.9183 270.789 18.9183H271.626C271.812 18.9183 271.905 19.0113 271.905 19.1974V27.2898C271.905 27.7921 272.081 28.22 272.435 28.5734C272.788 28.9269 273.216 29.1036 273.718 29.1036H276.646C277.148 29.1036 277.576 28.9269 277.929 28.5734C278.283 28.22 278.459 27.7921 278.459 27.2898V13.4769C278.459 13.2908 278.552 13.1978 278.738 13.1978H279.575C279.761 13.1978 279.854 13.2908 279.854 13.4769Z"/>
<path d="M297.281 30.471H289.75C288.411 30.471 287.259 29.9966 286.292 29.0478C285.343 28.0804 284.869 26.927 284.869 25.5876V18.0533C284.869 16.7138 285.343 15.5697 286.292 14.621C287.259 13.6536 288.411 13.1699 289.75 13.1699H297.281C298.62 13.1699 299.764 13.6536 300.712 14.621C301.679 15.5697 302.162 16.7138 302.162 18.0533V25.5876C302.162 26.927 301.679 28.0804 300.712 29.0478C299.764 29.9966 298.62 30.471 297.281 30.471ZM289.75 14.5652C288.783 14.5652 287.956 14.9093 287.268 15.5976C286.598 16.2674 286.264 17.0859 286.264 18.0533V25.5876C286.264 26.555 286.598 27.3828 287.268 28.0711C287.956 28.7409 288.783 29.0757 289.75 29.0757H297.281C298.248 29.0757 299.066 28.7409 299.736 28.0711C300.424 27.3828 300.768 26.555 300.768 25.5876V18.0533C300.768 17.0859 300.424 16.2674 299.736 15.5976C299.066 14.9093 298.248 14.5652 297.281 14.5652H289.75Z"/>
<path d="M322.797 30.4989H321.375C321.189 30.4989 321.031 30.4338 320.901 30.3035L311.947 21.3461C311.817 21.2158 311.845 21.1507 312.031 21.1507H316.019C316.912 21.1507 317.674 20.8345 318.307 20.202C318.957 19.5694 319.292 18.8067 319.311 17.9138C319.311 17.8952 319.311 17.8765 319.311 17.8579C319.311 17.2812 319.153 16.7417 318.836 16.2395C318.52 15.7186 318.093 15.3186 317.553 15.0395C317.033 14.7419 316.456 14.5931 315.824 14.5931H307.456C307.27 14.5931 307.112 14.528 306.982 14.3977L305.978 13.3932C305.848 13.2629 305.876 13.1978 306.062 13.1978H315.824C317.163 13.1978 318.307 13.6536 319.255 14.5652C320.222 15.4767 320.705 16.5836 320.705 17.8859C320.705 19.1695 320.24 20.2671 319.311 21.1786C318.4 22.0902 317.302 22.546 316.019 22.546H315.127L315.322 22.7413L322.881 30.3035C323.011 30.4338 322.983 30.4989 322.797 30.4989Z"/>
<path d="M343.471 19.0858C343.136 19.6439 342.671 20.1275 342.076 20.5368C341.76 20.7787 341.407 20.9833 341.016 21.1507H341.044C341.416 21.3182 341.76 21.5135 342.076 21.7367C342.671 22.1646 343.136 22.6576 343.471 23.2157C343.824 23.8296 344.001 24.4621 344.001 25.1132V30.2198C344.001 30.4058 343.908 30.4989 343.722 30.4989H342.885C342.699 30.4989 342.606 30.4058 342.606 30.2198V25.1132C342.606 24.2575 342.16 23.5133 341.267 22.8808C340.3 22.1925 339.12 21.8483 337.725 21.8483H328.102V30.2198C328.102 30.4058 328.009 30.4989 327.823 30.4989H326.986C326.801 30.4989 326.708 30.4058 326.708 30.2198V13.4769C326.708 13.2908 326.801 13.1978 326.986 13.1978H327.823C328.009 13.1978 328.102 13.2908 328.102 13.4769V20.4531H337.725C339.12 20.4531 340.3 20.1089 341.267 19.4206C342.16 18.7695 342.606 18.0161 342.606 17.1603V13.4769C342.606 13.2908 342.699 13.1978 342.885 13.1978H343.722C343.908 13.1978 344.001 13.2908 344.001 13.4769V17.1603C344.001 17.83 343.824 18.4718 343.471 19.0858Z"/>
</mask>
<path d="M214.592 13.1978H215.428C215.614 13.1978 215.707 13.2908 215.707 13.4769V30.2198C215.707 30.4058 215.614 30.4989 215.428 30.4989H214.313C214.127 30.4989 213.969 30.4338 213.838 30.3035L200.004 15.0675C199.874 14.9372 199.809 14.9651 199.809 15.1512V30.2198C199.809 30.4058 199.716 30.4989 199.53 30.4989H198.693C198.507 30.4989 198.414 30.4058 198.414 30.2198V13.4769C198.414 13.2908 198.507 13.1978 198.693 13.1978H199.809C199.995 13.1978 200.153 13.2629 200.283 13.3932L214.117 28.6013C214.248 28.7502 214.313 28.7316 214.313 28.5455V13.4769C214.313 13.2908 214.406 13.1978 214.592 13.1978Z" fill="url(#paint3_angular_83_970)"/>
<path d="M222.954 14.5652C222.768 14.5652 222.61 14.5001 222.48 14.3698L221.476 13.3653C221.345 13.235 221.373 13.1699 221.559 13.1699H237.039C237.225 13.1699 237.318 13.2629 237.318 13.449V14.2861C237.318 14.4722 237.225 14.5652 237.039 14.5652H222.954ZM237.318 30.1919C237.318 30.3779 237.225 30.471 237.039 30.471H221.699C221.513 30.471 221.42 30.3779 221.42 30.1919V29.3548C221.42 29.1687 221.513 29.0757 221.699 29.0757H237.039C237.225 29.0757 237.318 29.1687 237.318 29.3548V30.1919ZM233.134 22.239C233.134 22.425 233.042 22.5181 232.856 22.5181H221.699C221.513 22.5181 221.42 22.425 221.42 22.239V21.4019C221.42 21.2158 221.513 21.1228 221.699 21.1228H232.856C233.042 21.1228 233.134 21.2158 233.134 21.4019V22.239Z" fill="url(#paint4_angular_83_970)"/>
<path d="M243.868 14.5931C243.682 14.5931 243.524 14.528 243.393 14.3977L242.389 13.3932C242.259 13.2629 242.287 13.1978 242.473 13.1978H257.953C258.139 13.1978 258.232 13.2908 258.232 13.4769V14.314C258.232 14.5001 258.139 14.5931 257.953 14.5931H250.98V30.2198C250.98 30.4058 250.887 30.4989 250.701 30.4989H249.864C249.678 30.4989 249.585 30.4058 249.585 30.2198V14.5931H243.868Z" fill="url(#paint5_angular_83_970)"/>
<path d="M279.854 13.4769V27.2898C279.854 28.1828 279.538 28.9455 278.906 29.578C278.292 30.1919 277.539 30.4989 276.646 30.4989H273.718C272.751 30.4989 271.951 30.1361 271.319 29.4106C271.282 29.3734 271.245 29.3269 271.207 29.271C271.17 29.3269 271.133 29.3734 271.096 29.4106C270.464 30.1361 269.664 30.4989 268.697 30.4989H265.768C264.876 30.4989 264.113 30.1919 263.481 29.578C262.868 28.9455 262.561 28.1828 262.561 27.2898V13.4769C262.561 13.2908 262.654 13.1978 262.84 13.1978H263.676C263.862 13.1978 263.955 13.2908 263.955 13.4769V27.2898C263.955 27.7921 264.132 28.22 264.485 28.5734C264.839 28.9269 265.266 29.1036 265.768 29.1036H268.697C269.199 29.1036 269.627 28.9269 269.98 28.5734C270.333 28.22 270.51 27.7921 270.51 27.2898V19.1974C270.51 19.0113 270.603 18.9183 270.789 18.9183H271.626C271.812 18.9183 271.905 19.0113 271.905 19.1974V27.2898C271.905 27.7921 272.081 28.22 272.435 28.5734C272.788 28.9269 273.216 29.1036 273.718 29.1036H276.646C277.148 29.1036 277.576 28.9269 277.929 28.5734C278.283 28.22 278.459 27.7921 278.459 27.2898V13.4769C278.459 13.2908 278.552 13.1978 278.738 13.1978H279.575C279.761 13.1978 279.854 13.2908 279.854 13.4769Z" fill="url(#paint6_angular_83_970)"/>
<path d="M297.281 30.471H289.75C288.411 30.471 287.259 29.9966 286.292 29.0478C285.343 28.0804 284.869 26.927 284.869 25.5876V18.0533C284.869 16.7138 285.343 15.5697 286.292 14.621C287.259 13.6536 288.411 13.1699 289.75 13.1699H297.281C298.62 13.1699 299.764 13.6536 300.712 14.621C301.679 15.5697 302.162 16.7138 302.162 18.0533V25.5876C302.162 26.927 301.679 28.0804 300.712 29.0478C299.764 29.9966 298.62 30.471 297.281 30.471ZM289.75 14.5652C288.783 14.5652 287.956 14.9093 287.268 15.5976C286.598 16.2674 286.264 17.0859 286.264 18.0533V25.5876C286.264 26.555 286.598 27.3828 287.268 28.0711C287.956 28.7409 288.783 29.0757 289.75 29.0757H297.281C298.248 29.0757 299.066 28.7409 299.736 28.0711C300.424 27.3828 300.768 26.555 300.768 25.5876V18.0533C300.768 17.0859 300.424 16.2674 299.736 15.5976C299.066 14.9093 298.248 14.5652 297.281 14.5652H289.75Z" fill="url(#paint7_angular_83_970)"/>
<path d="M322.797 30.4989H321.375C321.189 30.4989 321.031 30.4338 320.901 30.3035L311.947 21.3461C311.817 21.2158 311.845 21.1507 312.031 21.1507H316.019C316.912 21.1507 317.674 20.8345 318.307 20.202C318.957 19.5694 319.292 18.8067 319.311 17.9138C319.311 17.8952 319.311 17.8765 319.311 17.8579C319.311 17.2812 319.153 16.7417 318.836 16.2395C318.52 15.7186 318.093 15.3186 317.553 15.0395C317.033 14.7419 316.456 14.5931 315.824 14.5931H307.456C307.27 14.5931 307.112 14.528 306.982 14.3977L305.978 13.3932C305.848 13.2629 305.876 13.1978 306.062 13.1978H315.824C317.163 13.1978 318.307 13.6536 319.255 14.5652C320.222 15.4767 320.705 16.5836 320.705 17.8859C320.705 19.1695 320.24 20.2671 319.311 21.1786C318.4 22.0902 317.302 22.546 316.019 22.546H315.127L315.322 22.7413L322.881 30.3035C323.011 30.4338 322.983 30.4989 322.797 30.4989Z" fill="url(#paint8_angular_83_970)"/>
<path d="M343.471 19.0858C343.136 19.6439 342.671 20.1275 342.076 20.5368C341.76 20.7787 341.407 20.9833 341.016 21.1507H341.044C341.416 21.3182 341.76 21.5135 342.076 21.7367C342.671 22.1646 343.136 22.6576 343.471 23.2157C343.824 23.8296 344.001 24.4621 344.001 25.1132V30.2198C344.001 30.4058 343.908 30.4989 343.722 30.4989H342.885C342.699 30.4989 342.606 30.4058 342.606 30.2198V25.1132C342.606 24.2575 342.16 23.5133 341.267 22.8808C340.3 22.1925 339.12 21.8483 337.725 21.8483H328.102V30.2198C328.102 30.4058 328.009 30.4989 327.823 30.4989H326.986C326.801 30.4989 326.708 30.4058 326.708 30.2198V13.4769C326.708 13.2908 326.801 13.1978 326.986 13.1978H327.823C328.009 13.1978 328.102 13.2908 328.102 13.4769V20.4531H337.725C339.12 20.4531 340.3 20.1089 341.267 19.4206C342.16 18.7695 342.606 18.0161 342.606 17.1603V13.4769C342.606 13.2908 342.699 13.1978 342.885 13.1978H343.722C343.908 13.1978 344.001 13.2908 344.001 13.4769V17.1603C344.001 17.83 343.824 18.4718 343.471 19.0858Z" fill="url(#paint9_angular_83_970)"/>
<path d="M214.592 13.1978H215.428C215.614 13.1978 215.707 13.2908 215.707 13.4769V30.2198C215.707 30.4058 215.614 30.4989 215.428 30.4989H214.313C214.127 30.4989 213.969 30.4338 213.838 30.3035L200.004 15.0675C199.874 14.9372 199.809 14.9651 199.809 15.1512V30.2198C199.809 30.4058 199.716 30.4989 199.53 30.4989H198.693C198.507 30.4989 198.414 30.4058 198.414 30.2198V13.4769C198.414 13.2908 198.507 13.1978 198.693 13.1978H199.809C199.995 13.1978 200.153 13.2629 200.283 13.3932L214.117 28.6013C214.248 28.7502 214.313 28.7316 214.313 28.5455V13.4769C214.313 13.2908 214.406 13.1978 214.592 13.1978Z" stroke="url(#paint10_angular_83_970)" stroke-width="2" mask="url(#path-3-outside-1_83_970)"/>
<path d="M222.954 14.5652C222.768 14.5652 222.61 14.5001 222.48 14.3698L221.476 13.3653C221.345 13.235 221.373 13.1699 221.559 13.1699H237.039C237.225 13.1699 237.318 13.2629 237.318 13.449V14.2861C237.318 14.4722 237.225 14.5652 237.039 14.5652H222.954ZM237.318 30.1919C237.318 30.3779 237.225 30.471 237.039 30.471H221.699C221.513 30.471 221.42 30.3779 221.42 30.1919V29.3548C221.42 29.1687 221.513 29.0757 221.699 29.0757H237.039C237.225 29.0757 237.318 29.1687 237.318 29.3548V30.1919ZM233.134 22.239C233.134 22.425 233.042 22.5181 232.856 22.5181H221.699C221.513 22.5181 221.42 22.425 221.42 22.239V21.4019C221.42 21.2158 221.513 21.1228 221.699 21.1228H232.856C233.042 21.1228 233.134 21.2158 233.134 21.4019V22.239Z" stroke="url(#paint11_angular_83_970)" stroke-width="2" mask="url(#path-3-outside-1_83_970)"/>
<path d="M243.868 14.5931C243.682 14.5931 243.524 14.528 243.393 14.3977L242.389 13.3932C242.259 13.2629 242.287 13.1978 242.473 13.1978H257.953C258.139 13.1978 258.232 13.2908 258.232 13.4769V14.314C258.232 14.5001 258.139 14.5931 257.953 14.5931H250.98V30.2198C250.98 30.4058 250.887 30.4989 250.701 30.4989H249.864C249.678 30.4989 249.585 30.4058 249.585 30.2198V14.5931H243.868Z" stroke="url(#paint12_angular_83_970)" stroke-width="2" mask="url(#path-3-outside-1_83_970)"/>
<path d="M279.854 13.4769V27.2898C279.854 28.1828 279.538 28.9455 278.906 29.578C278.292 30.1919 277.539 30.4989 276.646 30.4989H273.718C272.751 30.4989 271.951 30.1361 271.319 29.4106C271.282 29.3734 271.245 29.3269 271.207 29.271C271.17 29.3269 271.133 29.3734 271.096 29.4106C270.464 30.1361 269.664 30.4989 268.697 30.4989H265.768C264.876 30.4989 264.113 30.1919 263.481 29.578C262.868 28.9455 262.561 28.1828 262.561 27.2898V13.4769C262.561 13.2908 262.654 13.1978 262.84 13.1978H263.676C263.862 13.1978 263.955 13.2908 263.955 13.4769V27.2898C263.955 27.7921 264.132 28.22 264.485 28.5734C264.839 28.9269 265.266 29.1036 265.768 29.1036H268.697C269.199 29.1036 269.627 28.9269 269.98 28.5734C270.333 28.22 270.51 27.7921 270.51 27.2898V19.1974C270.51 19.0113 270.603 18.9183 270.789 18.9183H271.626C271.812 18.9183 271.905 19.0113 271.905 19.1974V27.2898C271.905 27.7921 272.081 28.22 272.435 28.5734C272.788 28.9269 273.216 29.1036 273.718 29.1036H276.646C277.148 29.1036 277.576 28.9269 277.929 28.5734C278.283 28.22 278.459 27.7921 278.459 27.2898V13.4769C278.459 13.2908 278.552 13.1978 278.738 13.1978H279.575C279.761 13.1978 279.854 13.2908 279.854 13.4769Z" stroke="url(#paint13_angular_83_970)" stroke-width="2" mask="url(#path-3-outside-1_83_970)"/>
<path d="M297.281 30.471H289.75C288.411 30.471 287.259 29.9966 286.292 29.0478C285.343 28.0804 284.869 26.927 284.869 25.5876V18.0533C284.869 16.7138 285.343 15.5697 286.292 14.621C287.259 13.6536 288.411 13.1699 289.75 13.1699H297.281C298.62 13.1699 299.764 13.6536 300.712 14.621C301.679 15.5697 302.162 16.7138 302.162 18.0533V25.5876C302.162 26.927 301.679 28.0804 300.712 29.0478C299.764 29.9966 298.62 30.471 297.281 30.471ZM289.75 14.5652C288.783 14.5652 287.956 14.9093 287.268 15.5976C286.598 16.2674 286.264 17.0859 286.264 18.0533V25.5876C286.264 26.555 286.598 27.3828 287.268 28.0711C287.956 28.7409 288.783 29.0757 289.75 29.0757H297.281C298.248 29.0757 299.066 28.7409 299.736 28.0711C300.424 27.3828 300.768 26.555 300.768 25.5876V18.0533C300.768 17.0859 300.424 16.2674 299.736 15.5976C299.066 14.9093 298.248 14.5652 297.281 14.5652H289.75Z" stroke="url(#paint14_angular_83_970)" stroke-width="2" mask="url(#path-3-outside-1_83_970)"/>
<path d="M322.797 30.4989H321.375C321.189 30.4989 321.031 30.4338 320.901 30.3035L311.947 21.3461C311.817 21.2158 311.845 21.1507 312.031 21.1507H316.019C316.912 21.1507 317.674 20.8345 318.307 20.202C318.957 19.5694 319.292 18.8067 319.311 17.9138C319.311 17.8952 319.311 17.8765 319.311 17.8579C319.311 17.2812 319.153 16.7417 318.836 16.2395C318.52 15.7186 318.093 15.3186 317.553 15.0395C317.033 14.7419 316.456 14.5931 315.824 14.5931H307.456C307.27 14.5931 307.112 14.528 306.982 14.3977L305.978 13.3932C305.848 13.2629 305.876 13.1978 306.062 13.1978H315.824C317.163 13.1978 318.307 13.6536 319.255 14.5652C320.222 15.4767 320.705 16.5836 320.705 17.8859C320.705 19.1695 320.24 20.2671 319.311 21.1786C318.4 22.0902 317.302 22.546 316.019 22.546H315.127L315.322 22.7413L322.881 30.3035C323.011 30.4338 322.983 30.4989 322.797 30.4989Z" stroke="url(#paint15_angular_83_970)" stroke-width="2" mask="url(#path-3-outside-1_83_970)"/>
<path d="M343.471 19.0858C343.136 19.6439 342.671 20.1275 342.076 20.5368C341.76 20.7787 341.407 20.9833 341.016 21.1507H341.044C341.416 21.3182 341.76 21.5135 342.076 21.7367C342.671 22.1646 343.136 22.6576 343.471 23.2157C343.824 23.8296 344.001 24.4621 344.001 25.1132V30.2198C344.001 30.4058 343.908 30.4989 343.722 30.4989H342.885C342.699 30.4989 342.606 30.4058 342.606 30.2198V25.1132C342.606 24.2575 342.16 23.5133 341.267 22.8808C340.3 22.1925 339.12 21.8483 337.725 21.8483H328.102V30.2198C328.102 30.4058 328.009 30.4989 327.823 30.4989H326.986C326.801 30.4989 326.708 30.4058 326.708 30.2198V13.4769C326.708 13.2908 326.801 13.1978 326.986 13.1978H327.823C328.009 13.1978 328.102 13.2908 328.102 13.4769V20.4531H337.725C339.12 20.4531 340.3 20.1089 341.267 19.4206C342.16 18.7695 342.606 18.0161 342.606 17.1603V13.4769C342.606 13.2908 342.699 13.1978 342.885 13.1978H343.722C343.908 13.1978 344.001 13.2908 344.001 13.4769V17.1603C344.001 17.83 343.824 18.4718 343.471 19.0858Z" stroke="url(#paint16_angular_83_970)" stroke-width="2" mask="url(#path-3-outside-1_83_970)"/>
<mask id="path-4-outside-2_83_970" maskUnits="userSpaceOnUse" x="56.2314" y="12.1699" width="125" height="20" fill="black">
<rect fill="white" x="56.2314" y="12.1699" width="125" height="20"/>
<path d="M59.7901 14.5931C59.6042 14.5931 59.4461 14.528 59.316 14.3977L58.3118 13.3932C58.1817 13.2629 58.2096 13.1978 58.3955 13.1978H73.8757C74.0617 13.1978 74.1546 13.2908 74.1546 13.4769V14.314C74.1546 14.5001 74.0617 14.5931 73.8757 14.5931H59.7901ZM69.4687 21.4298V22.2669C69.4687 22.4529 69.3758 22.546 69.1898 22.546H61.7426C61.5566 22.546 61.3893 22.6111 61.2405 22.7413C61.1104 22.8715 61.0453 23.039 61.0453 23.2436V30.2198C61.0453 30.4058 60.9523 30.4989 60.7664 30.4989H59.9296C59.7436 30.4989 59.6507 30.4058 59.6507 30.2198V23.2436C59.6507 22.6669 59.8552 22.1739 60.2643 21.7646C60.6734 21.3554 61.1661 21.1507 61.7426 21.1507H69.1898C69.3758 21.1507 69.4687 21.2437 69.4687 21.4298Z"/>
<path d="M80.7148 14.5652C80.5288 14.5652 80.3708 14.5001 80.2406 14.3698L79.2365 13.3653C79.1063 13.235 79.1342 13.1699 79.3202 13.1699H94.8004C94.9863 13.1699 95.0793 13.2629 95.0793 13.449V14.2861C95.0793 14.4722 94.9863 14.5652 94.8004 14.5652H80.7148ZM95.0793 30.1919C95.0793 30.3779 94.9863 30.471 94.8004 30.471H79.4596C79.2737 30.471 79.1807 30.3779 79.1807 30.1919V29.3548C79.1807 29.1687 79.2737 29.0757 79.4596 29.0757H94.8004C94.9863 29.0757 95.0793 29.1687 95.0793 29.3548V30.1919ZM90.8955 22.239C90.8955 22.425 90.8025 22.5181 90.6165 22.5181H79.4596C79.2737 22.5181 79.1807 22.425 79.1807 22.239V21.4019C79.1807 21.2158 79.2737 21.1228 79.4596 21.1228H90.6165C90.8025 21.1228 90.8955 21.2158 90.8955 21.4019V22.239Z"/>
<path d="M116.411 30.4989H114.989C114.803 30.4989 114.645 30.4338 114.515 30.3035L105.561 21.3461C105.431 21.2158 105.459 21.1507 105.645 21.1507H109.634C110.526 21.1507 111.289 20.8345 111.921 20.202C112.572 19.5694 112.906 18.8067 112.925 17.9138C112.925 17.8952 112.925 17.8765 112.925 17.8579C112.925 17.2812 112.767 16.7417 112.451 16.2395C112.135 15.7186 111.707 15.3186 111.168 15.0395C110.647 14.7419 110.071 14.5931 109.438 14.5931H101.071C100.885 14.5931 100.727 14.528 100.597 14.3977L99.5924 13.3932C99.4622 13.2629 99.4901 13.1978 99.6761 13.1978H109.438C110.777 13.1978 111.921 13.6536 112.869 14.5652C113.836 15.4767 114.32 16.5836 114.32 17.8859C114.32 19.1695 113.855 20.2671 112.925 21.1786C112.014 22.0902 110.917 22.546 109.634 22.546H108.741L108.936 22.7413L116.495 30.3035C116.625 30.4338 116.597 30.4989 116.411 30.4989Z"/>
<path d="M135.941 30.4989H134.519C134.333 30.4989 134.175 30.4338 134.045 30.3035L125.091 21.3461C124.961 21.2158 124.989 21.1507 125.175 21.1507H129.164C130.056 21.1507 130.819 20.8345 131.451 20.202C132.102 19.5694 132.436 18.8067 132.455 17.9138C132.455 17.8952 132.455 17.8765 132.455 17.8579C132.455 17.2812 132.297 16.7417 131.981 16.2395C131.665 15.7186 131.237 15.3186 130.698 15.0395C130.177 14.7419 129.601 14.5931 128.968 14.5931H120.601C120.415 14.5931 120.257 14.528 120.127 14.3977L119.122 13.3932C118.992 13.2629 119.02 13.1978 119.206 13.1978H128.968C130.307 13.1978 131.451 13.6536 132.399 14.5652C133.366 15.4767 133.85 16.5836 133.85 17.8859C133.85 19.1695 133.385 20.2671 132.455 21.1786C131.544 22.0902 130.447 22.546 129.164 22.546H128.271L128.466 22.7413L136.025 30.3035C136.155 30.4338 136.127 30.4989 135.941 30.4989Z"/>
<path d="M157.145 13.4769V25.6155C157.145 26.9549 156.662 28.1083 155.695 29.0757C154.746 30.0245 153.603 30.4989 152.264 30.4989H144.733C143.394 30.4989 142.241 30.0245 141.274 29.0757C140.326 28.1083 139.852 26.9549 139.852 25.6155V13.4769C139.852 13.2908 139.945 13.1978 140.131 13.1978H140.968C141.153 13.1978 141.246 13.2908 141.246 13.4769V25.6155C141.246 26.5829 141.581 27.4107 142.251 28.099C142.939 28.7688 143.766 29.1036 144.733 29.1036H152.264C153.231 29.1036 154.049 28.7688 154.718 28.099C155.406 27.4107 155.75 26.5829 155.75 25.6155V13.4769C155.75 13.2908 155.843 13.1978 156.029 13.1978H156.866C157.052 13.1978 157.145 13.2908 157.145 13.4769Z"/>
<path d="M178.059 13.1978H179.174C179.36 13.1978 179.453 13.2908 179.453 13.4769V30.2198C179.453 30.4058 179.36 30.4989 179.174 30.4989H178.338C178.152 30.4989 178.059 30.4058 178.059 30.2198V15.1512C178.059 14.9651 177.994 14.9372 177.864 15.0675L171.002 21.9321C170.872 22.0623 170.742 22.0623 170.612 21.9321L163.75 15.0675C163.62 14.9372 163.555 14.9651 163.555 15.1512V30.2198C163.555 30.4058 163.462 30.4989 163.276 30.4989H162.439C162.253 30.4989 162.16 30.4058 162.16 30.2198V21.8483V13.4769C162.16 13.2908 162.253 13.1978 162.439 13.1978H163.555C163.741 13.1978 163.899 13.2629 164.029 13.3932L170.612 19.9508C170.742 20.0996 170.872 20.0996 171.002 19.9508L177.585 13.3932C177.715 13.2629 177.873 13.1978 178.059 13.1978Z"/>
</mask>
<path d="M59.7901 14.5931C59.6042 14.5931 59.4461 14.528 59.316 14.3977L58.3118 13.3932C58.1817 13.2629 58.2096 13.1978 58.3955 13.1978H73.8757C74.0617 13.1978 74.1546 13.2908 74.1546 13.4769V14.314C74.1546 14.5001 74.0617 14.5931 73.8757 14.5931H59.7901ZM69.4687 21.4298V22.2669C69.4687 22.4529 69.3758 22.546 69.1898 22.546H61.7426C61.5566 22.546 61.3893 22.6111 61.2405 22.7413C61.1104 22.8715 61.0453 23.039 61.0453 23.2436V30.2198C61.0453 30.4058 60.9523 30.4989 60.7664 30.4989H59.9296C59.7436 30.4989 59.6507 30.4058 59.6507 30.2198V23.2436C59.6507 22.6669 59.8552 22.1739 60.2643 21.7646C60.6734 21.3554 61.1661 21.1507 61.7426 21.1507H69.1898C69.3758 21.1507 69.4687 21.2437 69.4687 21.4298Z" fill="url(#paint17_angular_83_970)"/>
<path d="M80.7148 14.5652C80.5288 14.5652 80.3708 14.5001 80.2406 14.3698L79.2365 13.3653C79.1063 13.235 79.1342 13.1699 79.3202 13.1699H94.8004C94.9863 13.1699 95.0793 13.2629 95.0793 13.449V14.2861C95.0793 14.4722 94.9863 14.5652 94.8004 14.5652H80.7148ZM95.0793 30.1919C95.0793 30.3779 94.9863 30.471 94.8004 30.471H79.4596C79.2737 30.471 79.1807 30.3779 79.1807 30.1919V29.3548C79.1807 29.1687 79.2737 29.0757 79.4596 29.0757H94.8004C94.9863 29.0757 95.0793 29.1687 95.0793 29.3548V30.1919ZM90.8955 22.239C90.8955 22.425 90.8025 22.5181 90.6165 22.5181H79.4596C79.2737 22.5181 79.1807 22.425 79.1807 22.239V21.4019C79.1807 21.2158 79.2737 21.1228 79.4596 21.1228H90.6165C90.8025 21.1228 90.8955 21.2158 90.8955 21.4019V22.239Z" fill="url(#paint18_angular_83_970)"/>
<path d="M116.411 30.4989H114.989C114.803 30.4989 114.645 30.4338 114.515 30.3035L105.561 21.3461C105.431 21.2158 105.459 21.1507 105.645 21.1507H109.634C110.526 21.1507 111.289 20.8345 111.921 20.202C112.572 19.5694 112.906 18.8067 112.925 17.9138C112.925 17.8952 112.925 17.8765 112.925 17.8579C112.925 17.2812 112.767 16.7417 112.451 16.2395C112.135 15.7186 111.707 15.3186 111.168 15.0395C110.647 14.7419 110.071 14.5931 109.438 14.5931H101.071C100.885 14.5931 100.727 14.528 100.597 14.3977L99.5924 13.3932C99.4622 13.2629 99.4901 13.1978 99.6761 13.1978H109.438C110.777 13.1978 111.921 13.6536 112.869 14.5652C113.836 15.4767 114.32 16.5836 114.32 17.8859C114.32 19.1695 113.855 20.2671 112.925 21.1786C112.014 22.0902 110.917 22.546 109.634 22.546H108.741L108.936 22.7413L116.495 30.3035C116.625 30.4338 116.597 30.4989 116.411 30.4989Z" fill="url(#paint19_angular_83_970)"/>
<path d="M135.941 30.4989H134.519C134.333 30.4989 134.175 30.4338 134.045 30.3035L125.091 21.3461C124.961 21.2158 124.989 21.1507 125.175 21.1507H129.164C130.056 21.1507 130.819 20.8345 131.451 20.202C132.102 19.5694 132.436 18.8067 132.455 17.9138C132.455 17.8952 132.455 17.8765 132.455 17.8579C132.455 17.2812 132.297 16.7417 131.981 16.2395C131.665 15.7186 131.237 15.3186 130.698 15.0395C130.177 14.7419 129.601 14.5931 128.968 14.5931H120.601C120.415 14.5931 120.257 14.528 120.127 14.3977L119.122 13.3932C118.992 13.2629 119.02 13.1978 119.206 13.1978H128.968C130.307 13.1978 131.451 13.6536 132.399 14.5652C133.366 15.4767 133.85 16.5836 133.85 17.8859C133.85 19.1695 133.385 20.2671 132.455 21.1786C131.544 22.0902 130.447 22.546 129.164 22.546H128.271L128.466 22.7413L136.025 30.3035C136.155 30.4338 136.127 30.4989 135.941 30.4989Z" fill="url(#paint20_angular_83_970)"/>
<path d="M157.145 13.4769V25.6155C157.145 26.9549 156.662 28.1083 155.695 29.0757C154.746 30.0245 153.603 30.4989 152.264 30.4989H144.733C143.394 30.4989 142.241 30.0245 141.274 29.0757C140.326 28.1083 139.852 26.9549 139.852 25.6155V13.4769C139.852 13.2908 139.945 13.1978 140.131 13.1978H140.968C141.153 13.1978 141.246 13.2908 141.246 13.4769V25.6155C141.246 26.5829 141.581 27.4107 142.251 28.099C142.939 28.7688 143.766 29.1036 144.733 29.1036H152.264C153.231 29.1036 154.049 28.7688 154.718 28.099C155.406 27.4107 155.75 26.5829 155.75 25.6155V13.4769C155.75 13.2908 155.843 13.1978 156.029 13.1978H156.866C157.052 13.1978 157.145 13.2908 157.145 13.4769Z" fill="url(#paint21_angular_83_970)"/>
<path d="M178.059 13.1978H179.174C179.36 13.1978 179.453 13.2908 179.453 13.4769V30.2198C179.453 30.4058 179.36 30.4989 179.174 30.4989H178.338C178.152 30.4989 178.059 30.4058 178.059 30.2198V15.1512C178.059 14.9651 177.994 14.9372 177.864 15.0675L171.002 21.9321C170.872 22.0623 170.742 22.0623 170.612 21.9321L163.75 15.0675C163.62 14.9372 163.555 14.9651 163.555 15.1512V30.2198C163.555 30.4058 163.462 30.4989 163.276 30.4989H162.439C162.253 30.4989 162.16 30.4058 162.16 30.2198V21.8483V13.4769C162.16 13.2908 162.253 13.1978 162.439 13.1978H163.555C163.741 13.1978 163.899 13.2629 164.029 13.3932L170.612 19.9508C170.742 20.0996 170.872 20.0996 171.002 19.9508L177.585 13.3932C177.715 13.2629 177.873 13.1978 178.059 13.1978Z" fill="url(#paint22_angular_83_970)"/>
<path d="M59.7901 14.5931C59.6042 14.5931 59.4461 14.528 59.316 14.3977L58.3118 13.3932C58.1817 13.2629 58.2096 13.1978 58.3955 13.1978H73.8757C74.0617 13.1978 74.1546 13.2908 74.1546 13.4769V14.314C74.1546 14.5001 74.0617 14.5931 73.8757 14.5931H59.7901ZM69.4687 21.4298V22.2669C69.4687 22.4529 69.3758 22.546 69.1898 22.546H61.7426C61.5566 22.546 61.3893 22.6111 61.2405 22.7413C61.1104 22.8715 61.0453 23.039 61.0453 23.2436V30.2198C61.0453 30.4058 60.9523 30.4989 60.7664 30.4989H59.9296C59.7436 30.4989 59.6507 30.4058 59.6507 30.2198V23.2436C59.6507 22.6669 59.8552 22.1739 60.2643 21.7646C60.6734 21.3554 61.1661 21.1507 61.7426 21.1507H69.1898C69.3758 21.1507 69.4687 21.2437 69.4687 21.4298Z" stroke="url(#paint23_angular_83_970)" stroke-width="2" mask="url(#path-4-outside-2_83_970)"/>
<path d="M80.7148 14.5652C80.5288 14.5652 80.3708 14.5001 80.2406 14.3698L79.2365 13.3653C79.1063 13.235 79.1342 13.1699 79.3202 13.1699H94.8004C94.9863 13.1699 95.0793 13.2629 95.0793 13.449V14.2861C95.0793 14.4722 94.9863 14.5652 94.8004 14.5652H80.7148ZM95.0793 30.1919C95.0793 30.3779 94.9863 30.471 94.8004 30.471H79.4596C79.2737 30.471 79.1807 30.3779 79.1807 30.1919V29.3548C79.1807 29.1687 79.2737 29.0757 79.4596 29.0757H94.8004C94.9863 29.0757 95.0793 29.1687 95.0793 29.3548V30.1919ZM90.8955 22.239C90.8955 22.425 90.8025 22.5181 90.6165 22.5181H79.4596C79.2737 22.5181 79.1807 22.425 79.1807 22.239V21.4019C79.1807 21.2158 79.2737 21.1228 79.4596 21.1228H90.6165C90.8025 21.1228 90.8955 21.2158 90.8955 21.4019V22.239Z" stroke="url(#paint24_angular_83_970)" stroke-width="2" mask="url(#path-4-outside-2_83_970)"/>
<path d="M116.411 30.4989H114.989C114.803 30.4989 114.645 30.4338 114.515 30.3035L105.561 21.3461C105.431 21.2158 105.459 21.1507 105.645 21.1507H109.634C110.526 21.1507 111.289 20.8345 111.921 20.202C112.572 19.5694 112.906 18.8067 112.925 17.9138C112.925 17.8952 112.925 17.8765 112.925 17.8579C112.925 17.2812 112.767 16.7417 112.451 16.2395C112.135 15.7186 111.707 15.3186 111.168 15.0395C110.647 14.7419 110.071 14.5931 109.438 14.5931H101.071C100.885 14.5931 100.727 14.528 100.597 14.3977L99.5924 13.3932C99.4622 13.2629 99.4901 13.1978 99.6761 13.1978H109.438C110.777 13.1978 111.921 13.6536 112.869 14.5652C113.836 15.4767 114.32 16.5836 114.32 17.8859C114.32 19.1695 113.855 20.2671 112.925 21.1786C112.014 22.0902 110.917 22.546 109.634 22.546H108.741L108.936 22.7413L116.495 30.3035C116.625 30.4338 116.597 30.4989 116.411 30.4989Z" stroke="url(#paint25_angular_83_970)" stroke-width="2" mask="url(#path-4-outside-2_83_970)"/>
<path d="M135.941 30.4989H134.519C134.333 30.4989 134.175 30.4338 134.045 30.3035L125.091 21.3461C124.961 21.2158 124.989 21.1507 125.175 21.1507H129.164C130.056 21.1507 130.819 20.8345 131.451 20.202C132.102 19.5694 132.436 18.8067 132.455 17.9138C132.455 17.8952 132.455 17.8765 132.455 17.8579C132.455 17.2812 132.297 16.7417 131.981 16.2395C131.665 15.7186 131.237 15.3186 130.698 15.0395C130.177 14.7419 129.601 14.5931 128.968 14.5931H120.601C120.415 14.5931 120.257 14.528 120.127 14.3977L119.122 13.3932C118.992 13.2629 119.02 13.1978 119.206 13.1978H128.968C130.307 13.1978 131.451 13.6536 132.399 14.5652C133.366 15.4767 133.85 16.5836 133.85 17.8859C133.85 19.1695 133.385 20.2671 132.455 21.1786C131.544 22.0902 130.447 22.546 129.164 22.546H128.271L128.466 22.7413L136.025 30.3035C136.155 30.4338 136.127 30.4989 135.941 30.4989Z" stroke="url(#paint26_angular_83_970)" stroke-width="2" mask="url(#path-4-outside-2_83_970)"/>
<path d="M157.145 13.4769V25.6155C157.145 26.9549 156.662 28.1083 155.695 29.0757C154.746 30.0245 153.603 30.4989 152.264 30.4989H144.733C143.394 30.4989 142.241 30.0245 141.274 29.0757C140.326 28.1083 139.852 26.9549 139.852 25.6155V13.4769C139.852 13.2908 139.945 13.1978 140.131 13.1978H140.968C141.153 13.1978 141.246 13.2908 141.246 13.4769V25.6155C141.246 26.5829 141.581 27.4107 142.251 28.099C142.939 28.7688 143.766 29.1036 144.733 29.1036H152.264C153.231 29.1036 154.049 28.7688 154.718 28.099C155.406 27.4107 155.75 26.5829 155.75 25.6155V13.4769C155.75 13.2908 155.843 13.1978 156.029 13.1978H156.866C157.052 13.1978 157.145 13.2908 157.145 13.4769Z" stroke="url(#paint27_angular_83_970)" stroke-width="2" mask="url(#path-4-outside-2_83_970)"/>
<path d="M178.059 13.1978H179.174C179.36 13.1978 179.453 13.2908 179.453 13.4769V30.2198C179.453 30.4058 179.36 30.4989 179.174 30.4989H178.338C178.152 30.4989 178.059 30.4058 178.059 30.2198V15.1512C178.059 14.9651 177.994 14.9372 177.864 15.0675L171.002 21.9321C170.872 22.0623 170.742 22.0623 170.612 21.9321L163.75 15.0675C163.62 14.9372 163.555 14.9651 163.555 15.1512V30.2198C163.555 30.4058 163.462 30.4989 163.276 30.4989H162.439C162.253 30.4989 162.16 30.4058 162.16 30.2198V21.8483V13.4769C162.16 13.2908 162.253 13.1978 162.439 13.1978H163.555C163.741 13.1978 163.899 13.2629 164.029 13.3932L170.612 19.9508C170.742 20.0996 170.872 20.0996 171.002 19.9508L177.585 13.3932C177.715 13.2629 177.873 13.1978 178.059 13.1978Z" stroke="url(#paint28_angular_83_970)" stroke-width="2" mask="url(#path-4-outside-2_83_970)"/>
</g>
<defs>
<filter id="filter0_i_83_970" x="16.5166" y="4.76074" width="21.0039" height="42.5615" filterUnits="userSpaceOnUse" color-interpolation-filters="sRGB">
<feFlood flood-opacity="0" result="BackgroundImageFix"/>
<feBlend mode="normal" in="SourceGraphic" in2="BackgroundImageFix" result="shape"/>
<feColorMatrix in="SourceAlpha" type="matrix" values="0 0 0 0 0 0 0 0 0 0 0 0 0 0 0 0 0 0 127 0" result="hardAlpha"/>
<feOffset dy="4"/>
<feGaussianBlur stdDeviation="2"/>
<feComposite in2="hardAlpha" operator="arithmetic" k2="-1" k3="1"/>
<feColorMatrix type="matrix" values="0 0 0 0 0 0 0 0 0 0 0 0 0 0 0 0 0 0 0.25 0"/>
<feBlend mode="normal" in2="shape" result="effect1_innerShadow_83_970"/>
</filter>
<filter id="filter1_i_83_970" x="0" y="0" width="23.248" height="43.873" filterUnits="userSpaceOnUse" color-interpolation-filters="sRGB">
<feFlood flood-opacity="0" result="BackgroundImageFix"/>
<feBlend mode="normal" in="SourceGraphic" in2="BackgroundImageFix" result="shape"/>
<feColorMatrix in="SourceAlpha" type="matrix" values="0 0 0 0 0 0 0 0 0 0 0 0 0 0 0 0 0 0 127 0" result="hardAlpha"/>
<feOffset dy="4"/>
<feGaussianBlur stdDeviation="2"/>
<feComposite in2="hardAlpha" operator="arithmetic" k2="-1" k3="1"/>
<feColorMatrix type="matrix" values="0 0 0 0 0 0 0 0 0 0 0 0 0 0 0 0 0 0 0.25 0"/>
<feBlend mode="normal" in2="shape" result="effect1_innerShadow_83_970"/>
</filter>
<filter id="filter2_i_83_970" x="57.2305" y="12.1699" width="287.771" height="23.3291" filterUnits="userSpaceOnUse" color-interpolation-filters="sRGB">
<feFlood flood-opacity="0" result="BackgroundImageFix"/>
<feBlend mode="normal" in="SourceGraphic" in2="BackgroundImageFix" result="shape"/>
<feColorMatrix in="SourceAlpha" type="matrix" values="0 0 0 0 0 0 0 0 0 0 0 0 0 0 0 0 0 0 127 0" result="hardAlpha"/>
<feOffset dy="4"/>
<feGaussianBlur stdDeviation="2"/>
<feComposite in2="hardAlpha" operator="arithmetic" k2="-1" k3="1"/>
<feColorMatrix type="matrix" values="0 0 0 0 0 0 0 0 0 0 0 0 0 0 0 0 0 0 0.25 0"/>
<feBlend mode="normal" in2="shape" result="effect1_innerShadow_83_970"/>
</filter>
<radialGradient id="paint0_angular_83_970" cx="0" cy="0" r="1" gradientUnits="userSpaceOnUse" gradientTransform="translate(27.0183 24.0414) rotate(90) scale(19.2807 10.5017)">
<stop offset="0.166667" stop-color="#EEEEEE"/>
<stop offset="0.395833" stop-color="#9F9F9F"/>
<stop offset="0.635417" stop-color="#F3F3F3"/>
<stop offset="0.901064" stop-color="#ACACAC"/>
<stop offset="1" stop-color="#CACACA"/>
</radialGradient>
<radialGradient id="paint1_angular_83_970" cx="0" cy="0" r="1" gradientUnits="userSpaceOnUse" gradientTransform="translate(11.6239 19.9366) rotate(90) scale(19.9366 11.6239)">
<stop offset="0.166667" stop-color="#FFF1D6"/>
<stop offset="0.395833" stop-color="#AE8625"/>
<stop offset="0.635417" stop-color="#FFF1D5"/>
<stop offset="0.895833" stop-color="#AE8625"/>
<stop offset="1" stop-color="#D9B373"/>
</radialGradient>
<radialGradient id="paint2_angular_83_970" cx="0" cy="0" r="1" gradientUnits="userSpaceOnUse" gradientTransform="translate(11.6239 19.9366) rotate(90) scale(19.9366 11.6239)">
<stop offset="0.166667" stop-color="#FFF1D6"/>
<stop offset="0.395833" stop-color="#AE8625"/>
<stop offset="0.635417" stop-color="#FFF1D5"/>
<stop offset="0.895833" stop-color="#AE8625"/>
<stop offset="1" stop-color="#D9B373"/>
</radialGradient>
<radialGradient id="paint3_angular_83_970" cx="0" cy="0" r="1" gradientUnits="userSpaceOnUse" gradientTransform="translate(271.207 21.8344) rotate(90) scale(8.66447 72.7934)">
<stop offset="0.166667" stop-color="#EEEEEE"/>
<stop offset="0.395833" stop-color="#9F9F9F"/>
<stop offset="0.635417" stop-color="#F3F3F3"/>
<stop offset="0.901064" stop-color="#ACACAC"/>
<stop offset="1" stop-color="#CACACA"/>
</radialGradient>
<radialGradient id="paint4_angular_83_970" cx="0" cy="0" r="1" gradientUnits="userSpaceOnUse" gradientTransform="translate(271.207 21.8344) rotate(90) scale(8.66447 72.7934)">
<stop offset="0.166667" stop-color="#EEEEEE"/>
<stop offset="0.395833" stop-color="#9F9F9F"/>
<stop offset="0.635417" stop-color="#F3F3F3"/>
<stop offset="0.901064" stop-color="#ACACAC"/>
<stop offset="1" stop-color="#CACACA"/>
</radialGradient>
<radialGradient id="paint5_angular_83_970" cx="0" cy="0" r="1" gradientUnits="userSpaceOnUse" gradientTransform="translate(271.207 21.8344) rotate(90) scale(8.66447 72.7934)">
<stop offset="0.166667" stop-color="#EEEEEE"/>
<stop offset="0.395833" stop-color="#9F9F9F"/>
<stop offset="0.635417" stop-color="#F3F3F3"/>
<stop offset="0.901064" stop-color="#ACACAC"/>
<stop offset="1" stop-color="#CACACA"/>
</radialGradient>
<radialGradient id="paint6_angular_83_970" cx="0" cy="0" r="1" gradientUnits="userSpaceOnUse" gradientTransform="translate(271.207 21.8344) rotate(90) scale(8.66447 72.7934)">
<stop offset="0.166667" stop-color="#EEEEEE"/>
<stop offset="0.395833" stop-color="#9F9F9F"/>
<stop offset="0.635417" stop-color="#F3F3F3"/>
<stop offset="0.901064" stop-color="#ACACAC"/>
<stop offset="1" stop-color="#CACACA"/>
</radialGradient>
<radialGradient id="paint7_angular_83_970" cx="0" cy="0" r="1" gradientUnits="userSpaceOnUse" gradientTransform="translate(271.207 21.8344) rotate(90) scale(8.66447 72.7934)">
<stop offset="0.166667" stop-color="#EEEEEE"/>
<stop offset="0.395833" stop-color="#9F9F9F"/>
<stop offset="0.635417" stop-color="#F3F3F3"/>
<stop offset="0.901064" stop-color="#ACACAC"/>
<stop offset="1" stop-color="#CACACA"/>
</radialGradient>
<radialGradient id="paint8_angular_83_970" cx="0" cy="0" r="1" gradientUnits="userSpaceOnUse" gradientTransform="translate(271.207 21.8344) rotate(90) scale(8.66447 72.7934)">
<stop offset="0.166667" stop-color="#EEEEEE"/>
<stop offset="0.395833" stop-color="#9F9F9F"/>
<stop offset="0.635417" stop-color="#F3F3F3"/>
<stop offset="0.901064" stop-color="#ACACAC"/>
<stop offset="1" stop-color="#CACACA"/>
</radialGradient>
<radialGradient id="paint9_angular_83_970" cx="0" cy="0" r="1" gradientUnits="userSpaceOnUse" gradientTransform="translate(271.207 21.8344) rotate(90) scale(8.66447 72.7934)">
<stop offset="0.166667" stop-color="#EEEEEE"/>
<stop offset="0.395833" stop-color="#9F9F9F"/>
<stop offset="0.635417" stop-color="#F3F3F3"/>
<stop offset="0.901064" stop-color="#ACACAC"/>
<stop offset="1" stop-color="#CACACA"/>
</radialGradient>
<radialGradient id="paint10_angular_83_970" cx="0" cy="0" r="1" gradientUnits="userSpaceOnUse" gradientTransform="translate(271.207 21.8344) rotate(90) scale(8.66447 72.7934)">
<stop offset="0.166667" stop-color="#EEEEEE"/>
<stop offset="0.395833" stop-color="#9F9F9F"/>
<stop offset="0.635417" stop-color="#F3F3F3"/>
<stop offset="0.901064" stop-color="#ACACAC"/>
<stop offset="1" stop-color="#CACACA"/>
</radialGradient>
<radialGradient id="paint11_angular_83_970" cx="0" cy="0" r="1" gradientUnits="userSpaceOnUse" gradientTransform="translate(271.207 21.8344) rotate(90) scale(8.66447 72.7934)">
<stop offset="0.166667" stop-color="#EEEEEE"/>
<stop offset="0.395833" stop-color="#9F9F9F"/>
<stop offset="0.635417" stop-color="#F3F3F3"/>
<stop offset="0.901064" stop-color="#ACACAC"/>
<stop offset="1" stop-color="#CACACA"/>
</radialGradient>
<radialGradient id="paint12_angular_83_970" cx="0" cy="0" r="1" gradientUnits="userSpaceOnUse" gradientTransform="translate(271.207 21.8344) rotate(90) scale(8.66447 72.7934)">
<stop offset="0.166667" stop-color="#EEEEEE"/>
<stop offset="0.395833" stop-color="#9F9F9F"/>
<stop offset="0.635417" stop-color="#F3F3F3"/>
<stop offset="0.901064" stop-color="#ACACAC"/>
<stop offset="1" stop-color="#CACACA"/>
</radialGradient>
<radialGradient id="paint13_angular_83_970" cx="0" cy="0" r="1" gradientUnits="userSpaceOnUse" gradientTransform="translate(271.207 21.8344) rotate(90) scale(8.66447 72.7934)">
<stop offset="0.166667" stop-color="#EEEEEE"/>
<stop offset="0.395833" stop-color="#9F9F9F"/>
<stop offset="0.635417" stop-color="#F3F3F3"/>
<stop offset="0.901064" stop-color="#ACACAC"/>
<stop offset="1" stop-color="#CACACA"/>
</radialGradient>
<radialGradient id="paint14_angular_83_970" cx="0" cy="0" r="1" gradientUnits="userSpaceOnUse" gradientTransform="translate(271.207 21.8344) rotate(90) scale(8.66447 72.7934)">
<stop offset="0.166667" stop-color="#EEEEEE"/>
<stop offset="0.395833" stop-color="#9F9F9F"/>
<stop offset="0.635417" stop-color="#F3F3F3"/>
<stop offset="0.901064" stop-color="#ACACAC"/>
<stop offset="1" stop-color="#CACACA"/>
</radialGradient>
<radialGradient id="paint15_angular_83_970" cx="0" cy="0" r="1" gradientUnits="userSpaceOnUse" gradientTransform="translate(271.207 21.8344) rotate(90) scale(8.66447 72.7934)">
<stop offset="0.166667" stop-color="#EEEEEE"/>
<stop offset="0.395833" stop-color="#9F9F9F"/>
<stop offset="0.635417" stop-color="#F3F3F3"/>
<stop offset="0.901064" stop-color="#ACACAC"/>
<stop offset="1" stop-color="#CACACA"/>
</radialGradient>
<radialGradient id="paint16_angular_83_970" cx="0" cy="0" r="1" gradientUnits="userSpaceOnUse" gradientTransform="translate(271.207 21.8344) rotate(90) scale(8.66447 72.7934)">
<stop offset="0.166667" stop-color="#EEEEEE"/>
<stop offset="0.395833" stop-color="#9F9F9F"/>
<stop offset="0.635417" stop-color="#F3F3F3"/>
<stop offset="0.901064" stop-color="#ACACAC"/>
<stop offset="1" stop-color="#CACACA"/>
</radialGradient>
<radialGradient id="paint17_angular_83_970" cx="0" cy="0" r="1" gradientUnits="userSpaceOnUse" gradientTransform="translate(118.842 21.8344) rotate(90) scale(8.66447 60.611)">
<stop offset="0.166667" stop-color="#FFF1D6"/>
<stop offset="0.395833" stop-color="#AE8625"/>
<stop offset="0.635417" stop-color="#FFF1D5"/>
<stop offset="0.895833" stop-color="#AE8625"/>
<stop offset="1" stop-color="#D9B373"/>
</radialGradient>
<radialGradient id="paint18_angular_83_970" cx="0" cy="0" r="1" gradientUnits="userSpaceOnUse" gradientTransform="translate(118.842 21.8344) rotate(90) scale(8.66447 60.611)">
<stop offset="0.166667" stop-color="#FFF1D6"/>
<stop offset="0.395833" stop-color="#AE8625"/>
<stop offset="0.635417" stop-color="#FFF1D5"/>
<stop offset="0.895833" stop-color="#AE8625"/>
<stop offset="1" stop-color="#D9B373"/>
</radialGradient>
<radialGradient id="paint19_angular_83_970" cx="0" cy="0" r="1" gradientUnits="userSpaceOnUse" gradientTransform="translate(118.842 21.8344) rotate(90) scale(8.66447 60.611)">
<stop offset="0.166667" stop-color="#FFF1D6"/>
<stop offset="0.395833" stop-color="#AE8625"/>
<stop offset="0.635417" stop-color="#FFF1D5"/>
<stop offset="0.895833" stop-color="#AE8625"/>
<stop offset="1" stop-color="#D9B373"/>
</radialGradient>
<radialGradient id="paint20_angular_83_970" cx="0" cy="0" r="1" gradientUnits="userSpaceOnUse" gradientTransform="translate(118.842 21.8344) rotate(90) scale(8.66447 60.611)">
<stop offset="0.166667" stop-color="#FFF1D6"/>
<stop offset="0.395833" stop-color="#AE8625"/>
<stop offset="0.635417" stop-color="#FFF1D5"/>
<stop offset="0.895833" stop-color="#AE8625"/>
<stop offset="1" stop-color="#D9B373"/>
</radialGradient>
<radialGradient id="paint21_angular_83_970" cx="0" cy="0" r="1" gradientUnits="userSpaceOnUse" gradientTransform="translate(118.842 21.8344) rotate(90) scale(8.66447 60.611)">
<stop offset="0.166667" stop-color="#FFF1D6"/>
<stop offset="0.395833" stop-color="#AE8625"/>
<stop offset="0.635417" stop-color="#FFF1D5"/>
<stop offset="0.895833" stop-color="#AE8625"/>
<stop offset="1" stop-color="#D9B373"/>
</radialGradient>
<radialGradient id="paint22_angular_83_970" cx="0" cy="0" r="1" gradientUnits="userSpaceOnUse" gradientTransform="translate(118.842 21.8344) rotate(90) scale(8.66447 60.611)">
<stop offset="0.166667" stop-color="#FFF1D6"/>
<stop offset="0.395833" stop-color="#AE8625"/>
<stop offset="0.635417" stop-color="#FFF1D5"/>
<stop offset="0.895833" stop-color="#AE8625"/>
<stop offset="1" stop-color="#D9B373"/>
</radialGradient>
<radialGradient id="paint23_angular_83_970" cx="0" cy="0" r="1" gradientUnits="userSpaceOnUse" gradientTransform="translate(118.842 21.8344) rotate(90) scale(8.66447 60.611)">
<stop offset="0.166667" stop-color="#FFF1D6"/>
<stop offset="0.395833" stop-color="#AE8625"/>
<stop offset="0.635417" stop-color="#FFF1D5"/>
<stop offset="0.895833" stop-color="#AE8625"/>
<stop offset="1" stop-color="#D9B373"/>
</radialGradient>
<radialGradient id="paint24_angular_83_970" cx="0" cy="0" r="1" gradientUnits="userSpaceOnUse" gradientTransform="translate(118.842 21.8344) rotate(90) scale(8.66447 60.611)">
<stop offset="0.166667" stop-color="#FFF1D6"/>
<stop offset="0.395833" stop-color="#AE8625"/>
<stop offset="0.635417" stop-color="#FFF1D5"/>
<stop offset="0.895833" stop-color="#AE8625"/>
<stop offset="1" stop-color="#D9B373"/>
</radialGradient>
<radialGradient id="paint25_angular_83_970" cx="0" cy="0" r="1" gradientUnits="userSpaceOnUse" gradientTransform="translate(118.842 21.8344) rotate(90) scale(8.66447 60.611)">
<stop offset="0.166667" stop-color="#FFF1D6"/>
<stop offset="0.395833" stop-color="#AE8625"/>
<stop offset="0.635417" stop-color="#FFF1D5"/>
<stop offset="0.895833" stop-color="#AE8625"/>
<stop offset="1" stop-color="#D9B373"/>
</radialGradient>
<radialGradient id="paint26_angular_83_970" cx="0" cy="0" r="1" gradientUnits="userSpaceOnUse" gradientTransform="translate(118.842 21.8344) rotate(90) scale(8.66447 60.611)">
<stop offset="0.166667" stop-color="#FFF1D6"/>
<stop offset="0.395833" stop-color="#AE8625"/>
<stop offset="0.635417" stop-color="#FFF1D5"/>
<stop offset="0.895833" stop-color="#AE8625"/>
<stop offset="1" stop-color="#D9B373"/>
</radialGradient>
<radialGradient id="paint27_angular_83_970" cx="0" cy="0" r="1" gradientUnits="userSpaceOnUse" gradientTransform="translate(118.842 21.8344) rotate(90) scale(8.66447 60.611)">
<stop offset="0.166667" stop-color="#FFF1D6"/>
<stop offset="0.395833" stop-color="#AE8625"/>
<stop offset="0.635417" stop-color="#FFF1D5"/>
<stop offset="0.895833" stop-color="#AE8625"/>
<stop offset="1" stop-color="#D9B373"/>
</radialGradient>
<radialGradient id="paint28_angular_83_970" cx="0" cy="0" r="1" gradientUnits="userSpaceOnUse" gradientTransform="translate(118.842 21.8344) rotate(90) scale(8.66447 60.611)">
<stop offset="0.166667" stop-color="#FFF1D6"/>
<stop offset="0.395833" stop-color="#AE8625"/>
<stop offset="0.635417" stop-color="#FFF1D5"/>
<stop offset="0.895833" stop-color="#AE8625"/>
<stop offset="1" stop-color="#D9B373"/>
</radialGradient>
</defs>
</svg>
