<svg width="33" height="30" viewBox="0 0 33 30" fill="none" xmlns="http://www.w3.org/2000/svg">
<path d="M31.267 0L17.5322 10.1627L20.0863 4.17351L31.267 0Z" fill="#E17726"/>
<path d="M0.77417 0.0117188L11.9249 4.17402L14.3501 10.2418L0.77417 0.0117188Z" fill="#E27625"/>
<path d="M25.7397 21.6133L31.8102 21.7288L29.6886 28.9361L22.2812 26.8966L25.7397 21.6133Z" fill="#E27625"/>
<path d="M6.2692 21.6133L9.71482 26.8966L2.31984 28.9362L0.211182 21.7288L6.2692 21.6133Z" fill="#E27625"/>
<path d="M14.0203 8.69629L14.2684 16.7089L6.84497 16.3712L8.95651 13.1856L8.98323 13.1549L14.0203 8.69629Z" fill="#E27625"/>
<path d="M17.9117 8.60742L23.0256 13.1557L23.0521 13.1862L25.1637 16.3718L17.7419 16.7095L17.9117 8.60742Z" fill="#E27625"/>
<path d="M9.93224 21.6367L13.9857 24.7949L9.2771 27.0683L9.93224 21.6367Z" fill="#E27625"/>
<path d="M22.0775 21.6357L22.719 27.0678L18.0237 24.7943L22.0775 21.6357Z" fill="#E27625"/>
<path d="M18.1272 24.4971L22.8919 26.8042L18.4598 28.9106L18.5058 27.5184L18.1272 24.4971Z" fill="#D5BFB2"/>
<path d="M13.8802 24.498L13.5164 27.4956L13.5463 28.9089L9.10376 26.8041L13.8802 24.498Z" fill="#D5BFB2"/>
<path d="M12.5043 17.7549L13.7494 20.3716L9.51025 19.1298L12.5043 17.7549Z" fill="#233447"/>
<path d="M19.5043 17.7549L22.5124 19.1295L18.2595 20.3709L19.5043 17.7549Z" fill="#233447"/>
<path d="M10.2561 21.6094L9.57082 27.2409L5.89819 21.7325L10.2561 21.6094Z" fill="#CC6228"/>
<path d="M21.7532 21.6104L26.1112 21.7335L22.4247 27.242L21.7532 21.6104Z" fill="#CC6228"/>
<path d="M25.2709 16.0527L22.0993 19.285L19.6541 18.1676L18.4833 20.6287L17.7158 16.3965L25.2709 16.0527Z" fill="#CC6228"/>
<path d="M6.73633 16.0527L14.2927 16.3965L13.5252 20.6288L12.3542 18.1679L9.92185 19.2851L6.73633 16.0527Z" fill="#CC6228"/>
<path d="M6.52246 15.3896L10.1107 19.0308L10.2351 22.6254L6.52246 15.3896Z" fill="#E27525"/>
<path d="M25.49 15.3828L21.7708 22.6315L21.9108 19.0304L25.49 15.3828Z" fill="#E27525"/>
<path d="M14.1172 15.6113L14.2616 16.5203L14.6184 18.7848L14.389 25.7399L13.3043 20.1528L13.304 20.095L14.1172 15.6113Z" fill="#E27525"/>
<path d="M17.8897 15.5986L18.705 20.0949L18.7047 20.1527L17.6172 25.7537L17.5742 24.3528L17.4045 18.7435L17.8897 15.5986Z" fill="#E27525"/>
<path d="M22.2296 18.8857L22.1081 22.0089L18.3228 24.9581L17.5576 24.4174L18.4154 19.9993L22.2296 18.8857Z" fill="#F5841F"/>
<path d="M9.79224 18.8857L13.5933 19.9993L14.451 24.4174L13.6858 24.958L9.90027 22.0085L9.79224 18.8857Z" fill="#F5841F"/>
<path d="M8.37939 26.1143L13.2222 28.4089L13.2017 27.429L13.6069 27.0734H18.4L18.8199 27.4278L18.7889 28.407L23.6011 26.1201L21.2595 28.055L18.428 29.9998H13.5681L10.7385 28.0471L8.37939 26.1143Z" fill="#C0AC9D"/>
<path d="M17.7806 24.1914L18.4653 24.6751L18.8665 27.8766L18.2859 27.3862H13.7252L13.1555 27.8864L13.5436 24.6753L14.2286 24.1914H17.7806Z" fill="#161616"/>
<path d="M30.3602 0.28125L32.0089 5.22731L30.9793 10.2283L31.7125 10.7939L30.7204 11.5508L31.466 12.1266L30.4786 13.0259L31.0848 13.4648L29.4761 15.3436L22.8781 13.4225L22.8209 13.3918L18.0662 9.3809L30.3602 0.28125Z" fill="#763E1A"/>
<path d="M1.64871 0.28125L13.9428 9.3809L9.18811 13.3918L9.13093 13.4225L2.5328 15.3436L0.924159 13.4648L1.52983 13.0262L0.542965 12.1266L1.28718 11.5514L0.280245 10.7923L1.04108 10.2264L0 5.2275L1.64871 0.28125Z" fill="#763E1A"/>
<path d="M22.5555 13.0029L29.5466 15.0383L31.8179 22.0385L25.8258 22.0385L21.697 22.0906L24.6996 16.2379L22.5555 13.0029Z" fill="#F5841F"/>
<path d="M9.45362 13.0029L7.30912 16.2379L10.3121 22.0906L6.18538 22.0385H0.203857L2.46241 15.0384L9.45362 13.0029Z" fill="#F5841F"/>
<path d="M20.4286 4.14062L18.4732 9.42194L18.0582 16.5565L17.8994 18.7927L17.8868 24.5053H14.1219L14.1097 18.8034L13.9504 16.5546L13.5352 9.42194L11.5801 4.14062H20.4286Z" fill="#F5841F"/>
</svg>
