<svg width="30" height="30" viewBox="0 0 30 30" fill="none" xmlns="http://www.w3.org/2000/svg">
<path fill-rule="evenodd" clip-rule="evenodd" d="M12.5225 13.75H17.4775C18.18 13.75 18.75 14.3038 18.75 14.9875V18.7638C18.75 19.4475 18.18 20.0012 17.4775 20.0012H12.5225C11.82 20 11.25 19.4463 11.25 18.7625V14.9875C11.25 14.3038 11.82 13.75 12.5225 13.75V13.75Z" stroke="#D9B373" stroke-width="1.5" stroke-linecap="round" stroke-linejoin="round"/>
<path d="M12.895 13.75V12.105C12.895 10.9425 13.8375 10 15 10C16.1625 10 17.105 10.9425 17.105 12.105V13.75" stroke="#D9B373" stroke-width="1.5" stroke-linecap="round" stroke-linejoin="round"/>
<path d="M7.91504 23.9938C9.86504 25.5325 12.3225 26.4575 15 26.4575C21.3288 26.4575 26.4588 21.3275 26.4588 14.9988C26.4588 13.3188 26.0888 11.7275 25.4388 10.29L23.0213 12.7075" stroke="#D9B373" stroke-width="1.5" stroke-linecap="round" stroke-linejoin="round"/>
<path d="M22.0848 6.00602C20.1335 4.46727 17.6773 3.54102 14.9998 3.54102C8.67102 3.54102 3.54102 8.67102 3.54102 14.9998C3.54102 16.6798 3.91102 18.271 4.56102 19.7085L6.97852 17.291" stroke="#D9B373" stroke-width="1.5" stroke-linecap="round" stroke-linejoin="round"/>
</svg>
