<svg width="24" height="25" viewBox="0 0 24 25" fill="none" xmlns="http://www.w3.org/2000/svg">
<path d="M1.28218 11.9999C1.28218 6.09015 6.09015 1.28218 11.9999 1.28218C14.9549 1.28218 17.7606 2.49641 19.7824 4.63131H19.2347C18.8806 4.63131 18.5936 4.91831 18.5936 5.27241C18.5936 5.6265 18.8806 5.9135 19.2347 5.9135H21.4089C21.763 5.9135 22.05 5.6265 22.05 5.27241V3.09818C22.05 2.74408 21.763 2.45709 21.4089 2.45709C21.0548 2.45709 20.7678 2.74408 20.7678 3.09818V3.80844C18.5004 1.38198 15.3354 0 11.9999 0C5.38317 0 0 5.38317 0 11.9999C0 14.9181 1.06008 17.7309 2.98485 19.9201C3.11157 20.0642 3.28858 20.1379 3.46659 20.1379C3.61682 20.1379 3.76784 20.0853 3.88957 19.9783C4.15548 19.7445 4.18155 19.3394 3.9477 19.0735C2.22886 17.1184 1.28218 14.6063 1.28218 11.9999Z" fill="#D9B373"/>
<path d="M23.2355 7.77597C23.1109 7.44452 22.7409 7.27691 22.4098 7.40157C22.0784 7.52623 21.9107 7.89585 22.0354 8.2273C22.4882 9.43148 22.7179 10.7007 22.7179 11.9996C22.7179 17.9094 17.9099 22.7173 12.0001 22.7173C10.29 22.7173 8.59213 22.3047 7.08407 21.525L7.66347 21.3199C7.9972 21.2016 8.17193 20.8353 8.05376 20.5016C7.93558 20.1677 7.56881 19.9931 7.23544 20.1113L5.18601 20.8371C4.85229 20.9553 4.67756 21.3217 4.79573 21.6554L5.52152 23.7048C5.61469 23.9678 5.86179 24.1321 6.12578 24.1321C6.1968 24.1321 6.2691 24.1202 6.33983 24.0951C6.67356 23.9768 6.84829 23.6105 6.73012 23.2768L6.51692 22.6749C8.20092 23.541 10.094 23.9995 12.0001 23.9995C18.6169 23.9995 24 18.6164 24 11.9996C24 10.5461 23.7428 9.12497 23.2355 7.77597Z" fill="#D9B373"/>
<path d="M11.9998 4.01562C7.64521 4.01562 4.10254 7.55829 4.10254 11.9129C4.10254 16.2674 7.64521 19.8101 11.9998 19.8101C16.3544 19.8101 19.897 16.2674 19.897 11.9129C19.8971 7.55829 16.3544 4.01562 11.9998 4.01562ZM18.0625 12.554H18.5837C18.2806 15.6908 15.7777 18.1937 12.6409 18.4968V17.9756C12.6409 17.6215 12.3539 17.3345 11.9998 17.3345C11.6457 17.3345 11.3587 17.6215 11.3587 17.9756V18.4968C8.22183 18.1937 5.71894 15.6908 5.41585 12.554H5.93706C6.29115 12.554 6.57815 12.267 6.57815 11.9129C6.57815 11.5588 6.29115 11.2719 5.93706 11.2719H5.41585C5.71894 8.13499 8.22183 5.6321 11.3587 5.32901V5.85021C11.3587 6.20431 11.6457 6.49131 11.9998 6.49131C12.3539 6.49131 12.6409 6.20431 12.6409 5.85021V5.32901C15.7777 5.6321 18.2806 8.13499 18.5837 11.2718H18.0625C17.7084 11.2718 17.4214 11.5588 17.4214 11.9129C17.4214 12.267 17.7084 12.554 18.0625 12.554Z" fill="#D9B373"/>
<path d="M14.8829 11.9163H14.4339H12.6411V9.3563V8.4409C12.6411 8.0868 12.3541 7.7998 12 7.7998C11.6459 7.7998 11.3589 8.0868 11.3589 8.4409V12.5574C11.3589 12.9115 11.6459 13.1985 12 13.1985H14.8829C15.237 13.1985 15.524 12.9115 15.524 12.5574C15.524 12.2033 15.237 11.9163 14.8829 11.9163Z" fill="#D9B373"/>
</svg>
