<svg width="15" height="17" viewBox="0 0 15 17" fill="none" xmlns="http://www.w3.org/2000/svg">
<path fill-rule="evenodd" clip-rule="evenodd" d="M7.50001 0L2.89517 2.60389L4.58814 3.56487L7.4993 1.92337L10.4119 3.56487L12.1048 2.60389L7.50001 0ZM10.4112 4.92591L12.1048 5.88759V7.81165L9.19298 9.45385V12.7382L7.50001 13.7L5.80704 12.7382V9.45385L2.89517 7.81165V5.88759L4.58814 4.92591L7.4993 6.56811L10.4119 4.92591H10.4112ZM12.1048 9.17199V11.096L10.4119 12.0578V10.1337L12.1048 9.17268V9.17199ZM10.3952 13.4181L13.3063 11.7759V8.49216L15 7.52979V12.7382L10.3952 15.3422V13.4181ZM13.3063 5.20776L11.6141 4.24609L13.307 3.28369L15 4.24609V6.17019L13.307 7.13187L13.3063 5.20776ZM5.80775 16.0391V14.1143L7.50072 15.0759L9.19369 14.1143V16.0383L7.50072 17L5.80775 16.0383V16.0391ZM4.58669 12.057L2.89517 11.096V9.17199L4.58814 10.1337V12.0578L4.58669 12.057ZM7.4993 5.20707L5.80634 4.24609L7.4993 3.28369L9.19227 4.24609L7.4993 5.20776V5.20707ZM3.38593 4.24609L1.69296 5.20776V7.13187L0 6.17019V4.24609L1.69296 3.28369L3.38593 4.24609ZM0 7.52979L1.69296 8.49216V11.7759L4.60411 13.4181V15.3422L0.000725593 12.7382V7.52979H0Z" fill="#F4BB2B"/>
</svg>
